<svg version="1.1" viewBox="0.0 0.0 512.0 512.0" fill="none" stroke="none" stroke-linecap="square" stroke-miterlimit="10" xmlns:xlink="http://www.w3.org/1999/xlink" xmlns="http://www.w3.org/2000/svg"><clipPath id="p.0"><path d="m0 0l512.0 0l0 512.0l-512.0 0l0 -512.0z" clip-rule="nonzero"/></clipPath><g clip-path="url(#p.0)"><path fill="#000000" fill-opacity="0.0" d="m0 0l512.0 0l0 512.0l-512.0 0z" fill-rule="evenodd"/><path fill="#90e29f" d="m0 145.14926l53.621696 -53.621704l404.7566 0l53.621704 53.621704l0 221.26053l-53.621704 53.621704l-404.7566 0l-53.621696 -53.621704z" fill-rule="evenodd"/><path stroke="#000000" stroke-width="1.0" stroke-linejoin="round" stroke-linecap="butt" d="m0 145.14926l53.621696 -53.621704l404.7566 0l53.621704 53.621704l0 221.26053l-53.621704 53.621704l-404.7566 0l-53.621696 -53.621704z" fill-rule="evenodd"/><path fill="#000000" fill-opacity="0.0" d="m438.21783 169.02362l-364.88187 0" fill-rule="evenodd"/><path stroke="#000000" stroke-width="1.0" stroke-linejoin="round" stroke-linecap="butt" d="m438.21783 169.02362l-364.88187 0" fill-rule="evenodd"/><path fill="#000000" fill-opacity="0.0" d="m73.320854 342.53543l364.8819 0" fill-rule="evenodd"/><path stroke="#000000" stroke-width="1.0" stroke-linejoin="round" stroke-linecap="butt" d="m73.320854 342.53543l364.8819 0" fill-rule="evenodd"/><path fill="#abffae" d="m73.32546 163.77953l364.88187 0l0 184.44093l-364.88187 0z" fill-rule="evenodd"/><path stroke="#000000" stroke-width="1.0" stroke-linejoin="round" stroke-linecap="butt" d="m73.32546 163.77953l364.88187 0l0 184.44093l-364.88187 0z" fill-rule="evenodd"/><path fill="#000000" fill-opacity="0.0" d="m0 145.14926l73.41732 18.866135" fill-rule="evenodd"/><path stroke="#000000" stroke-width="1.0" stroke-linejoin="round" stroke-linecap="butt" d="m0 145.14926l73.41732 18.866135" fill-rule="evenodd"/><path fill="#000000" fill-opacity="0.0" d="m53.621696 91.52756l19.779526 72.0" fill-rule="evenodd"/><path stroke="#000000" stroke-width="1.0" stroke-linejoin="round" stroke-linecap="butt" d="m53.621696 91.52756l19.779526 72.0" fill-rule="evenodd"/><path fill="#000000" fill-opacity="0.0" d="m53.621696 420.0315l19.811028 -72.031494" fill-rule="evenodd"/><path stroke="#000000" stroke-width="1.0" stroke-linejoin="round" stroke-linecap="butt" d="m53.621696 420.0315l19.811028 -72.031494" fill-rule="evenodd"/><path fill="#000000" fill-opacity="0.0" d="m0 366.4098l73.385826 -18.897644" fill-rule="evenodd"/><path stroke="#000000" stroke-width="1.0" stroke-linejoin="round" stroke-linecap="butt" d="m0 366.4098l73.385826 -18.897644" fill-rule="evenodd"/><path fill="#000000" fill-opacity="0.0" d="m511.65057 366.64603l-73.41733 -18.86615" fill-rule="evenodd"/><path stroke="#000000" stroke-width="1.0" stroke-linejoin="round" stroke-linecap="butt" d="m511.65057 366.64603l-73.41733 -18.86615" fill-rule="evenodd"/><path fill="#000000" fill-opacity="0.0" d="m458.02887 420.26773l-19.779541 -72.0" fill-rule="evenodd"/><path stroke="#000000" stroke-width="1.0" stroke-linejoin="round" stroke-linecap="butt" d="m458.02887 420.26773l-19.779541 -72.0" fill-rule="evenodd"/><path fill="#000000" fill-opacity="0.0" d="m458.02887 91.76378l-19.811035 72.031494" fill-rule="evenodd"/><path stroke="#000000" stroke-width="1.0" stroke-linejoin="round" stroke-linecap="butt" d="m458.02887 91.76378l-19.811035 72.031494" fill-rule="evenodd"/><path fill="#000000" fill-opacity="0.0" d="m511.65057 145.38548l-73.38583 18.897629" fill-rule="evenodd"/><path stroke="#000000" stroke-width="1.0" stroke-linejoin="round" stroke-linecap="butt" d="m511.65057 145.38548l-73.38583 18.897629" fill-rule="evenodd"/><path fill="#000000" fill-opacity="0.0" d="m73.55905 197.6063l364.8819 0l0 116.346466l-364.8819 0z" fill-rule="evenodd"/><path fill="#000000" d="m149.9137 250.21452l32.359375 0l0 12.093735l-32.359375 0l0 -12.093735zm1.15625 27.64061l36.578125 0l0 12.484375l-52.03125 0l0 -67.20311l50.78125 0l0 12.484375l-35.328125 0l0 42.23436zm67.302704 12.484375l29.953125 -67.20311l15.359375 0l30.046875 67.20311l-16.328125 0l-24.578125 -59.32811l6.15625 0l-24.671875 59.32811l-15.9375 0zm14.96875 -14.40625l4.125 -11.796875l34.5625 0l4.234375 11.796875l-42.921875 0zm108.8602 -25.718735l32.359375 0l0 12.093735l-32.359375 0l0 -12.093735zm1.15625 27.64061l36.578125 0l0 12.484375l-52.03125 0l0 -67.20311l50.78125 0l0 12.484375l-35.328125 0l0 42.23436z" fill-rule="nonzero"/></g></svg>